<?xml version="1.0" standalone="no"?>
<!DOCTYPE svg PUBLIC "-//W3C//DTD SVG 20010904//EN"
 "http://www.w3.org/TR/2001/REC-SVG-20010904/DTD/svg10.dtd">
<svg version="1.0" xmlns="http://www.w3.org/2000/svg"
 width="451.000000pt" height="451.000000pt" viewBox="0 0 451.000000 451.000000"
 preserveAspectRatio="xMidYMid meet">

<g transform="translate(0.000000,451.000000) scale(0.100000,-0.100000)"
fill="#000000" stroke="none">
<path d="M3359 2986 c-2 -2 -51 -9 -109 -15 -58 -6 -184 -20 -280 -31 -96 -11
-296 -34 -445 -50 -148 -17 -326 -37 -395 -45 -140 -17 -290 -33 -365 -40 -47
-4 -45 -3 22 14 39 11 78 21 85 24 7 3 -86 3 -207 0 -121 -3 -308 0 -415 6
-107 7 -252 14 -321 18 l-126 6 -96 -46 c-105 -49 -113 -61 -83 -118 20 -39 5
-243 -24 -329 -21 -62 -22 -71 -10 -185 6 -66 13 -122 15 -125 2 -3 -4 -37
-12 -75 -16 -70 -20 -188 -9 -250 4 -18 18 -49 31 -69 20 -29 21 -36 9 -36
-12 0 -15 -6 -10 -22 3 -13 6 -35 6 -50 l0 -28 123 6 c94 5 164 1 302 -16 99
-12 189 -22 200 -22 19 0 115 9 515 46 85 8 189 17 230 20 l75 5 -111 -23
c-60 -13 -116 -25 -124 -28 -20 -6 133 0 450 18 296 18 449 15 595 -12 99 -18
366 -15 480 5 33 6 130 20 215 31 231 30 231 30 237 48 4 10 15 28 25 41 41
53 59 147 68 346 5 105 14 215 20 245 18 82 7 177 -28 247 -30 58 -30 59 -11
83 10 14 19 28 19 33 0 4 -24 7 -54 7 -78 0 -87 19 -25 53 52 30 69 52 69 89
-1 27 -17 50 -47 67 -20 10 -213 30 -300 31 -32 0 -33 2 -33 40 0 59 -33 90
-98 90 -27 0 -51 -2 -53 -4z m-1662 -192 c-3 -3 -12 -4 -19 -1 -8 3 -5 6 6 6
11 1 17 -2 13 -5z m-797 -107 c0 -1 -23 -25 -51 -52 l-51 -50 7 45 c4 25 9 48
12 53 4 6 83 11 83 4z m360 -28 c-7 -11 -14 -18 -17 -15 -8 8 5 36 17 36 7 0
7 -6 0 -21z m-220 -158 c0 -6 -15 -11 -32 -13 l-33 -3 0 -275 0 -275 33 -3
c17 -2 32 -7 32 -13 0 -13 -64 -11 -78 3 -9 9 -12 87 -12 290 0 253 1 278 18
287 22 13 72 14 72 2z m484 -7 c14 -13 16 -54 16 -288 0 -198 -3 -275 -12
-284 -14 -14 -78 -16 -78 -3 0 6 15 11 33 13 l32 3 3 269 c3 286 3 286 -45
286 -13 0 -23 5 -23 10 0 16 57 12 74 -6z m-244 -89 c15 -19 6 -61 -16 -69
-27 -10 -53 3 -60 30 -8 30 11 54 41 54 12 0 28 -7 35 -15z m561 -82 l1 -38
16 37 c26 59 42 49 42 -27 0 -68 -19 -94 -21 -27 l-1 37 -19 -43 c-11 -23 -24
-40 -30 -37 -12 8 -12 135 1 135 6 0 10 -17 11 -37z m121 10 c4 -40 41 -39 49
2 8 38 10 33 13 -30 3 -60 -5 -92 -14 -55 -4 16 -14 26 -28 28 -19 3 -22 -1
-22 -29 0 -56 -13 -22 -18 46 -2 41 0 65 6 65 6 0 12 -12 14 -27z m188 18 c0
-5 -7 -11 -15 -15 -11 -4 -15 -21 -15 -61 0 -31 -4 -54 -8 -51 -4 2 -7 22 -6
43 3 50 -4 73 -22 73 -8 0 -14 5 -14 10 0 6 18 10 40 10 22 0 40 -4 40 -9z
m130 0 c0 -6 -14 -11 -32 -13 -35 -3 -52 -28 -19 -28 12 0 21 -4 21 -10 0 -5
-6 -10 -14 -10 -19 0 -28 -14 -20 -34 4 -10 18 -16 35 -16 16 0 29 -5 29 -11
0 -6 -16 -9 -37 -7 l-38 3 -3 54 c-2 29 -1 60 2 67 6 16 76 20 76 5z m114 -13
c14 -23 -3 -52 -33 -56 -16 -3 -21 -10 -21 -33 0 -18 -4 -28 -10 -24 -5 3 -10
35 -10 71 l0 65 31 -3 c18 -2 37 -11 43 -20z m120 -33 c9 -30 19 -61 22 -70 3
-8 1 -15 -5 -15 -6 0 -13 11 -17 25 -4 16 -13 25 -25 25 -12 0 -21 -9 -25 -25
-6 -22 -24 -36 -24 -17 0 7 25 94 35 120 9 26 24 10 39 -43z m76 30 c0 -14 5
-25 10 -25 6 0 16 11 22 25 12 26 28 34 28 13 0 -7 -4 -20 -10 -28 -5 -8 -5
-19 0 -25 8 -10 14 -41 11 -60 -1 -5 -8 5 -16 23 -19 44 -45 43 -45 -4 0 -20
-4 -33 -10 -29 -11 7 -9 135 3 135 4 0 7 -11 7 -25z m190 15 c0 -5 -7 -10 -15
-10 -12 0 -15 -13 -15 -60 0 -33 -4 -60 -10 -60 -6 0 -10 27 -10 60 0 47 -3
60 -15 60 -8 0 -15 5 -15 10 0 6 18 10 40 10 22 0 40 -4 40 -10z m69 -60 c4 0
13 16 20 35 21 59 40 45 39 -30 -2 -70 -15 -88 -20 -27 l-4 37 -20 -42 c-10
-24 -22 -43 -26 -43 -5 0 -7 33 -6 73 1 40 3 55 5 35 2 -21 8 -38 12 -38z
m175 11 c7 -47 6 -57 -10 -68 -10 -7 -28 -13 -41 -13 -22 0 -23 4 -23 71 l0
70 32 -3 c31 -3 33 -5 42 -57z m68 32 c4 -40 41 -39 49 2 4 17 8 28 9 25 2 -7
3 -90 0 -115 -2 -17 -3 -16 -9 5 -4 15 -15 26 -29 28 -19 3 -22 -1 -22 -28 0
-61 -17 -19 -19 45 -1 63 15 92 21 38z m195 -7 c13 -29 14 -39 4 -65 -24 -56
-75 -47 -87 15 -15 78 50 117 83 50z m133 24 c0 -5 -13 -10 -30 -10 -20 0 -30
-5 -30 -15 0 -8 7 -15 15 -15 8 0 15 -4 15 -10 0 -5 -7 -10 -16 -10 -10 0 -14
-7 -12 -22 2 -17 11 -24 31 -26 15 -2 27 -8 27 -13 0 -13 -54 -11 -68 3 -13
13 -17 110 -5 121 10 11 73 8 73 -3z m-2109 -56 c15 -14 19 -31 19 -86 0 -61
-2 -71 -20 -75 -16 -4 -20 -14 -20 -49 0 -62 -15 -94 -43 -94 -35 0 -47 19
-47 77 0 42 -4 54 -20 63 -17 9 -20 21 -20 79 0 69 9 88 50 104 24 10 81 -1
101 -19z m583 -136 c14 -23 -3 -52 -33 -56 -15 -2 -21 -10 -21 -28 0 -13 -4
-24 -10 -24 -6 0 -10 29 -10 66 l0 65 31 -3 c18 -2 37 -11 43 -20z m131 13
c-6 -5 -21 -11 -34 -13 -27 -3 -42 -28 -17 -28 9 0 16 -4 16 -10 0 -5 -7 -10
-16 -10 -10 0 -14 -7 -12 -22 2 -18 11 -24 36 -26 38 -4 33 -22 -7 -22 -38 0
-51 17 -51 70 0 55 13 70 59 70 21 0 31 -4 26 -9z m102 -3 c14 -17 25 -82 17
-101 -13 -34 -74 -26 -74 10 0 14 2 14 19 -1 21 -19 41 -14 41 9 0 8 -8 19
-17 25 -13 8 -14 13 -5 16 14 7 17 34 3 34 -6 0 -13 -4 -16 -10 -12 -20 -26
-10 -15 10 12 23 33 26 47 8z m83 -13 c0 -31 12 -32 25 -2 13 28 54 35 72 11
20 -28 16 -88 -8 -110 -23 -21 -47 -12 -64 24 -14 31 -25 27 -25 -8 0 -16 -4
-30 -10 -30 -6 0 -10 30 -10 70 0 40 4 70 10 70 6 0 10 -11 10 -25z m249 -40
c0 -35 -4 -67 -9 -70 -6 -4 -10 8 -10 26 0 26 -3 29 -14 20 -8 -6 -20 -10 -27
-9 -7 2 -16 -8 -20 -22 -5 -17 -7 -2 -7 43 1 68 11 88 22 42 9 -33 22 -32 35
5 17 49 29 34 30 -35z m121 55 c0 -5 -13 -10 -30 -10 -20 0 -30 -5 -30 -15 0
-8 7 -15 15 -15 8 0 15 -4 15 -10 0 -5 -7 -10 -16 -10 -10 0 -14 -7 -12 -22 2
-17 11 -24 31 -26 15 -2 27 -8 27 -13 0 -13 -54 -11 -68 3 -13 13 -16 85 -6
112 7 18 74 23 74 6z m461 -133 c-7 -7 -9 -1 -6 19 5 40 7 43 12 15 3 -13 0
-28 -6 -34z m-2169 -32 c-3 -19 -10 -25 -31 -25 l-26 0 30 25 c17 13 31 24 31
25 1 0 -1 -11 -4 -25z m2560 -114 c3 -21 1 -28 -9 -24 -8 3 -12 12 -9 20 3 8
6 19 6 24 0 20 8 7 12 -20z m-415 -37 c-3 -3 -12 -4 -19 -1 -8 3 -5 6 6 6 11
1 17 -2 13 -5z m-49 -11 c-10 -2 -26 -2 -35 0 -10 3 -2 5 17 5 19 0 27 -2 18
-5z m-1564 -73 c-5 -5 -36 -12 -69 -15 -56 -6 -59 -5 -41 9 22 18 127 23 110
6z m1939 -87 c-7 -2 -19 -2 -25 0 -7 3 -2 5 12 5 14 0 19 -2 13 -5z m-1230
-100 c-7 -2 -19 -2 -25 0 -7 3 -2 5 12 5 14 0 19 -2 13 -5z"/>
<path d="M2340 2320 c0 -13 7 -20 20 -20 13 0 20 7 20 20 0 13 -7 20 -20 20
-13 0 -20 -7 -20 -20z"/>
<path d="M2480 2300 c0 -5 5 -10 11 -10 5 0 7 5 4 10 -3 6 -8 10 -11 10 -2 0
-4 -4 -4 -10z"/>
<path d="M2970 2320 c0 -11 7 -20 15 -20 8 0 15 9 15 20 0 11 -7 20 -15 20 -8
0 -15 -9 -15 -20z"/>
<path d="M2973 2274 c-8 -21 13 -42 28 -27 13 13 5 43 -11 43 -6 0 -13 -7 -17
-16z"/>
<path d="M3227 2333 c-14 -13 -7 -81 8 -87 17 -6 45 19 45 40 0 38 -34 67 -53
47z"/>
<path d="M1840 2140 c0 -13 7 -20 20 -20 13 0 20 7 20 20 0 13 -7 20 -20 20
-13 0 -20 -7 -20 -20z"/>
<path d="M2250 2141 c-14 -27 -13 -47 5 -65 32 -32 69 19 45 63 -14 26 -36 27
-50 2z"/>
</g>
</svg>
